<?xml version="1.0" encoding="UTF-8" standalone="no"?>
<!-- Created with Inkscape (http://www.inkscape.org/) -->

<svg
   width="800"
   height="800"
   viewBox="0 0 211.66666 211.66667"
   version="1.1"
   id="svg1"
   inkscape:version="1.3.2 (091e20e, 2023-11-25)"
   sodipodi:docname="icon-source2.svg"
   xml:space="preserve"
   xmlns:inkscape="http://www.inkscape.org/namespaces/inkscape"
   xmlns:sodipodi="http://sodipodi.sourceforge.net/DTD/sodipodi-0.dtd"
   xmlns="http://www.w3.org/2000/svg"
   xmlns:svg="http://www.w3.org/2000/svg"><sodipodi:namedview
     id="namedview1"
     pagecolor="#ffffff"
     bordercolor="#000000"
     borderopacity="0.25"
     inkscape:showpageshadow="2"
     inkscape:pageopacity="0.0"
     inkscape:pagecheckerboard="0"
     inkscape:deskcolor="#d1d1d1"
     inkscape:document-units="px"
     showgrid="true"
     inkscape:zoom="0.33687233"
     inkscape:cx="307.23805"
     inkscape:cy="688.6882"
     inkscape:window-width="1850"
     inkscape:window-height="1136"
     inkscape:window-x="70"
     inkscape:window-y="27"
     inkscape:window-maximized="1"
     inkscape:current-layer="layer1"><inkscape:grid
       id="grid1"
       units="px"
       originx="0"
       originy="0"
       spacingx="5.2916666"
       spacingy="5.2916666"
       empcolor="#0099e5"
       empopacity="0.30196078"
       color="#0099e5"
       opacity="0.14901961"
       empspacing="5"
       dotted="false"
       gridanglex="30"
       gridanglez="30"
       visible="true" /></sodipodi:namedview><defs
     id="defs1" /><g
     inkscape:label="Layer 1"
     inkscape:groupmode="layer"
     id="layer1"><circle
       style="fill:#7babcd;fill-opacity:1;stroke:none;stroke-width:5.44955;stroke-linejoin:round;stroke-dasharray:none"
       id="path2"
       cx="105.83334"
       cy="105.83334"
       r="100.85695" /><path
       style="fill:#afcf8f;fill-opacity:1;stroke-width:1.66741;stroke:#454545;stroke-opacity:1"
       d="m 54.099894,188.39944 c -4.766712,-2.50732 -9.797239,-9.35241 -11.392399,-15.50179 -0.374347,-1.44309 -0.978279,-5.32008 -1.342074,-8.61552 -1.30571,-11.82782 -2.389112,-14.36434 -9.371717,-21.94159 -2.761302,-2.99646 -5.279191,-6.21172 -6.127325,-7.82437 -1.287573,-2.44823 -1.440219,-3.12083 -1.443937,-6.36244 -0.0038,-3.26113 0.154772,-3.95764 1.580148,-6.94319 0.871371,-1.82513 1.584309,-3.82919 1.584309,-4.45346 0,-1.50368 -1.04833,-2.95247 -2.765548,-3.82194 -0.768704,-0.38922 -2.285068,-1.63716 -3.36969,-2.77324 -1.084619,-1.13606 -3.244487,-3.06485 -4.799693,-4.28621 -1.555213,-1.22132 -3.188448,-2.84956 -3.629407,-3.61829 -1.610255,-2.807177 -3.412519,-18.163069 -2.884739,-24.578988 0.538395,-6.54496 2.741736,-11.727494 6.399085,-18.730787 4.462979,-8.545956 11.060166,-17.832579 17.95246,-24.403559 2.96402,-2.825835 3.855627,-3.903318 4.777894,-3.66873 0.850367,0.216275 1.415576,-0.04085 2.559408,-1.164398 0.80741,-0.793104 1.587423,-1.867621 1.733353,-2.387822 0.265653,-0.946976 2.165868,-2.698106 3.484121,-3.210771 0.532506,-0.207071 0.701397,0.0059 0.701397,0.88506 0,0.636806 0.197198,1.157828 0.438233,1.157828 0.993332,0 0.29738,1.228804 -2.067883,3.651152 -2.711938,2.777397 -2.290132,3.687679 0.541322,1.168204 1.08926,-0.969256 1.711596,-1.256479 2.027884,-0.935934 0.310463,0.314639 0.314521,0.731014 0.01274,1.302578 -0.244017,0.462059 -0.863814,2.653861 -1.377356,4.870677 -0.742078,3.203369 -1.233607,4.362391 -2.394999,5.647386 -1.643963,1.818934 -2.625421,2.034628 -3.315125,0.728569 -0.723699,-1.37042 -1.607184,-1.07825 -3.964951,1.311227 -2.282612,2.313308 -2.669994,3.613456 -1.636025,5.490885 0.293842,0.53354 0.638949,2.06929 0.766901,3.412765 0.127955,1.343485 0.42985,2.423352 0.670874,2.399699 0.241047,-0.02372 1.482504,-1.922278 2.758829,-4.219186 2.832042,-5.096599 4.996439,-7.433022 7.22532,-7.799582 1.456504,-0.239519 1.788484,-0.09333 3.307006,1.456493 l 1.687971,1.722773 0.571513,8.041303 c 0.31433,4.42272 0.442123,8.563743 0.283991,9.202283 -0.158149,0.638541 -1.069846,1.99442 -2.02602,3.013087 l -1.738505,1.852112 -2.96743,-0.353181 c -4.112602,-0.48948 -5.229677,-0.382865 -6.638342,0.6337 -1.634673,1.179639 -5.092489,5.251694 -8.609334,13.362766 -2.21948,5.118878 -2.117832,6.499069 -3.048704,7.735085 -0.823378,1.093282 -3.245585,-0.06158 -3.777269,-1.539487 -1.429792,-3.974084 -2.912182,-4.775147 -5.50647,-2.975695 -3.553405,2.464747 -5.265756,9.946451 -2.657998,11.613511 0.581304,0.37161 1.029664,0.1739 2.189458,-0.96531 1.172376,-1.15159 2.773084,-0.26985 2.908849,0.30097 0.01466,0.0611 0.260884,0.94092 0.464271,3.938337 0.292318,4.30832 0.585119,5.88981 1.397848,7.55014 1.281464,2.61791 2.55192,2.90039 5.509742,1.22497 3.183252,-1.80307 5.520083,-2.18276 8.096439,-1.31553 2.648826,0.89163 4.159636,2.38876 9.664437,9.57679 2.351278,3.07027 4.690142,5.96207 5.197461,6.42622 0.825954,0.75571 1.661952,0.84393 7.995423,0.84393 6.284859,0 7.238824,0.099 8.561017,0.88828 4.140192,2.47143 4.392052,5.81127 0.958664,12.71262 l -2.277129,4.57721 0.285236,2.69932 c 0.519481,4.91609 -0.128209,6.20125 -5.55728,11.02742 -0.790324,0.70253 -1.317119,1.80446 -1.657824,3.46772 -0.321318,1.5686 -1.587998,4.32575 -3.552265,7.73215 -3.300662,5.72394 -3.890469,7.56762 -3.115647,9.73915 0.27523,0.77139 0.500418,2.46107 0.500418,3.75487 0,2.14038 0.153329,2.50778 1.701369,4.07666 1.231645,1.24816 2.069927,1.72424 3.036317,1.72424 0.73422,0 1.666707,0.3362 2.072191,0.74713 0.690846,0.70012 0.687545,0.78399 -0.05245,1.33237 -1.251287,0.9273 -4.127225,0.65955 -6.538304,-0.60864 z m 76.603886,-30.32028 c -1.33388,-0.57761 -2.2233,-2.51783 -2.97187,-6.4827 -0.35084,-1.85853 -0.9142,-3.91252 -1.25181,-4.56433 -4.65121,-8.97993 -5.54997,-10.86472 -5.54997,-11.63905 0,-0.49868 0.39444,-1.69021 0.87653,-2.64781 1.48088,-2.94191 1.27808,-3.62891 -2.9129,-9.86657 l -2.4539,-3.65219 0.27325,-2.97953 c 0.42143,-4.59516 -0.43269,-5.03347 -9.24654,-4.74515 -4.77054,0.15606 -5.37689,0.27777 -8.009764,1.60787 -1.56665,0.79149 -4.066889,1.66867 -5.556049,1.94936 -2.331882,0.43948 -2.984935,0.40294 -4.706369,-0.26334 -4.169719,-1.61384 -6.828575,-6.78171 -6.828575,-13.27239 0,-7.909067 4.181862,-18.124637 9.789574,-23.914182 l 2.428523,-2.507257 -2.000876,-0.304109 c -2.211677,-0.336088 -3.876562,-1.691457 -4.330784,-3.525606 -0.688434,-2.779791 1.02619,-5.181623 4.656794,-6.523212 1.996025,-0.737554 2.680469,-1.220536 2.881787,-2.033406 C 96.26466,60.802293 94.442493,59.54772 90.119984,58.811059 89.20267,58.654778 88.068762,58.138267 87.600141,57.663333 85.695436,55.733012 87.205525,47.55 90.041096,44.436176 c 1.898777,-2.085135 2.40414,-1.793518 4.771353,2.753385 0.987725,1.897234 2.237157,3.950565 2.776487,4.562944 1.28507,1.459058 2.759184,1.251029 3.573034,-0.504214 0.33983,-0.732803 1.1798,-1.988872 1.86665,-2.791235 1.30857,-1.528734 1.63142,-3.348415 0.70094,-3.95079 -0.30124,-0.195052 -1.63062,-0.45666 -2.95414,-0.581366 -3.058104,-0.288146 -3.790724,-1.415666 -3.061734,-4.712218 1.00773,-4.55731 5.766164,-12.145114 8.228304,-13.120899 1.74303,-0.690784 7.78266,-0.148891 10.73499,0.963215 1.39662,0.5261 2.83527,0.841465 3.19694,0.700812 0.36168,-0.14063 0.94904,-0.962641 1.30524,-1.826645 0.91071,-2.208966 2.15705,-3.326948 3.70883,-3.326948 1.7455,0 2.10783,-1.052982 0.92176,-2.678826 -1.28315,-1.758865 -1.19895,-1.918641 0.83733,-1.588652 1.62871,0.263936 1.73749,0.220473 1.33857,-0.534919 -0.23898,-0.452219 -0.7734,-1.105566 -1.18798,-1.451879 -0.41459,-0.346314 -1.40258,-1.655303 -2.19544,-2.908866 l -1.44164,-2.279201 -4.2924,-0.201338 c -4.42248,-0.207453 -6.70266,-0.89618 -6.70266,-2.0245838 0,-0.885483 3.18379,-0.475037 11.61315,1.4971388 5.22967,1.223572 12.11042,2.33448 14.81983,2.392692 0.19704,0.004 0.23299,-0.392017 0.0798,-0.880553 -0.20173,-0.643387 -0.0783,-0.91121 0.44527,-0.888251 2.72725,0.119592 10.744,3.683488 17.57674,7.688324 2.45162,1.436958 8.90284,5.524017 15.82426,11.430252 4.04094,3.448249 4.24263,6.205288 7.9857,13.746686 1.27302,2.564832 3.94911,7.161516 5.94682,10.214873 4.33452,6.624924 4.92438,8.377195 3.95622,11.752359 -1.02847,3.585485 -0.87272,4.451312 1.57351,8.746979 l 2.25462,3.959092 -0.28563,3.76612 c -0.21446,2.828332 -0.12699,4.151448 0.35243,5.313718 0.92088,2.233682 1.83086,1.954777 3.09827,-0.949678 0.87849,-2.013042 1.20643,-2.39922 1.69125,-1.991448 0.33074,0.278225 0.71573,1.219984 0.85549,2.092796 0.24907,1.554882 0.97053,2.840074 1.59452,2.840074 0.17306,0 0.5389,-0.499629 0.81345,-1.110311 0.65531,-1.457588 1.22312,-1.401957 2.04049,0.200022 0.74981,1.469373 0.90429,4.463306 0.23052,4.463306 -0.644,0 -0.53369,2.64876 0.21446,5.14788 0.89226,2.980817 0.82992,3.864127 -0.35217,4.989557 -1.35972,1.29457 -1.75336,1.22605 -3.07954,-0.53602 -0.79824,-1.06067 -1.61799,-1.58938 -2.79099,-1.80019 -0.9134,-0.16414 -1.98435,-0.39429 -2.37987,-0.51141 -0.91536,-0.27106 -2.25486,-3.492757 -3.16933,-7.622909 -0.39214,-1.770956 -1.03622,-4.668872 -1.4313,-6.439828 -0.89463,-4.010095 -1.61917,-5.484523 -3.62109,-7.368506 -2.98338,-2.807736 -5.21944,-4.132507 -6.7247,-3.984147 -2.56535,0.252787 -2.85826,2.11388 -1.81839,11.554204 0.37978,3.448293 0.002,4.794852 -1.33851,4.794852 -1.32632,0 -2.15295,-1.159596 -5.08064,-7.126867 -1.25273,-2.553356 -2.96108,-5.496584 -3.79634,-6.540518 -2.68735,-3.358751 -6.57164,-4.644942 -10.42667,-3.452584 -3.38886,1.048183 -5.25307,0.886764 -7.44994,-0.645016 -2.96082,-2.064534 -5.45521,-1.558407 -4.18393,0.848945 0.69602,1.31802 2.48462,2.123288 5.49909,2.475832 4.06874,0.475848 5.62371,1.025525 6.5443,2.313371 l 0.84771,1.185947 -0.75004,2.898297 c -1.95784,7.564961 -5.77465,10.10857 -10.91448,7.273507 -2.41769,-1.333563 -3.45688,-2.759706 -5.36448,-7.361988 -1.27619,-3.078975 -3.15017,-5.192665 -4.60377,-5.192665 -2.77563,0 -3.00648,2.349978 -0.54999,5.598527 0.90385,1.19531 2.23499,3.364016 2.95802,4.819376 0.858,1.726833 1.99981,3.174569 3.28677,4.167373 l 1.97202,1.52133 4.16484,-0.27619 c 6.72356,-0.44582 7.95566,0.91728 7.00816,7.753287 -0.25069,1.80722 -1.37663,5.88399 -2.50257,9.05949 -2.18481,6.16201 -2.48337,8.74469 -1.67696,14.50561 0.46915,3.3517 0.22671,4.10448 -2.55454,7.9254 -2.68354,3.68698 -3.34336,5.46508 -3.34336,9.01024 0,1.35851 -0.203,4.03338 -0.45121,5.94417 l -0.4512,3.47411 -1.9855,1.87288 c -3.92522,3.70258 -10.53624,5.92641 -13.63233,4.58567 z m -10.5799,-83.997762 c 4.36899,-1.488505 5.08077,-1.541378 8.18264,-0.607836 5.18194,1.559574 9.21976,-1.656274 6.1872,-4.92769 -1.24405,-1.342035 -3.19928,-1.419475 -5.01803,-0.198747 -1.65065,1.10789 -6.74973,1.322394 -9.17484,0.206816 -2.66604,-1.226014 -3.05322,-6.600929 -6.11701,-4.984978 -1.57206,0.829177 0.25443,5.508044 -1.18987,6.372238 -0.86715,0.518854 -3.96951,-0.882657 -5.48476,-1.749312 -3.94703,-2.257527 -5.75401,-1.087023 -8.736734,2.601934 -0.89684,1.109208 -1.54196,2.106598 -1.43363,2.216419 0.1085,0.109778 1.41423,-0.02973 2.901954,-0.31014 3.06205,-0.577112 4.25651,-0.366069 10.17048,1.796819 4.09739,1.498528 4.09304,1.498698 9.7126,-0.415884 z m 80.12615,63.397762 c 0,-0.81611 0.2981,-2.46492 0.66243,-3.664 0.36432,-1.1991 0.84107,-4.87827 1.05945,-8.17589 0.30842,-4.65901 0.64557,-6.6564 1.51221,-8.95933 1.02447,-2.72237 1.78335,-6.63475 2.33257,-12.02557 0.11827,-1.1603 0.55689,-2.32056 0.61087,-2.10961 0.60221,2.35333 0.067,11.79902 -0.57764,16.2812 -0.64465,4.48218 -1.10422,6.71703 -1.89165,10.32312 -0.78744,3.6061 -3.70864,13.39913 -3.70864,8.33008 z M 61.484759,44.03127 c -1.730723,-1.889354 -1.324492,-4.777061 1.300982,-9.248092 1.127948,-1.920839 2.050818,-3.923562 2.050818,-4.450487 0,-0.526932 0.493009,-2.087832 1.095578,-3.468669 0.602569,-1.38084 1.095582,-2.783035 1.095582,-3.115992 0,-0.332958 -0.493013,-0.73078 -1.095582,-0.884052 -1.532995,-0.38993 -1.383303,-0.851587 0.887595,-2.737443 1.090741,-0.905801 1.899771,-1.731436 1.797837,-1.834741 -0.101939,-0.103296 -1.536671,0.505422 -3.18831,1.352723 -5.463981,2.803066 -9.295543,7.592187 -8.723836,10.904049 0.80965,4.690275 0.797754,4.904927 -0.410629,7.407988 -1.441031,2.984976 -3.783601,4.765576 -5.988044,4.551546 -2.216858,-0.215212 -2.155005,-1.577434 0.251021,-5.528606 1.104574,-1.813935 2.008315,-3.508411 2.008315,-3.765507 0,-0.288365 -0.503808,-0.355304 -1.315051,-0.174712 -0.96034,0.213743 -1.383165,0.112837 -1.567554,-0.374136 -0.399009,-1.053768 0.585702,-2.52153 3.70744,-5.526154 l 2.900136,-2.791336 -1.862482,0.276652 c -1.523819,0.226332 -1.862489,0.148423 -1.862489,-0.428573 0,-0.387876 -0.284164,-0.705227 -0.631478,-0.705227 -2.433215,0 1.646992,-3.465605 4.775416,-4.056099 2.443346,-0.461177 7.548675,-2.294047 10.240504,-3.676447 1.231569,-0.632474 2.707438,-1.149955 3.279712,-1.149955 0.572271,0 1.997672,-0.291942 3.167567,-0.648763 1.169885,-0.356821 2.335147,-0.483568 2.589474,-0.281662 0.875392,0.694954 3.078179,0.845566 4.17951,0.285777 2.266622,-1.152106 3.726509,-1.14699 5.419616,0.01911 0.87998,0.605996 1.59996,1.382242 1.59996,1.724982 0,0.34274 -0.780283,1.536833 -1.733951,2.653539 -1.70403,1.995321 -1.902801,2.582865 -2.411451,7.128215 -0.409855,3.662327 -2.107321,5.906458 -6.123537,8.095545 -4.433967,2.416785 -4.695947,2.678365 -6.605648,6.595272 -1.956516,4.01294 -3.162914,5.072754 -5.774355,5.072754 -1.546293,0 -2.158087,-0.244778 -3.05266,-1.221345 z m 17.390618,-4.523083 c -0.612816,-1.160469 -0.571738,-2.487079 0.09408,-3.040268 0.30128,-0.250282 1.405458,-0.687523 2.453733,-0.971609 1.648856,-0.446853 2.018293,-0.413473 2.738937,0.247477 1.234297,1.132042 1.031948,1.807088 -0.985668,3.288295 -2.093074,1.536611 -3.650084,1.708963 -4.301128,0.476111 z"
       id="path53"
       sodipodi:nodetypes="cssssssssssssssssssssssscsssssssssscssscsssssssscssssssscscsssssssssscccscscscssssssscssssssssssssscssscssscsccsssccssssssscscssssscscssssssssssssssssscssssscscscsscsscssccssscssssssscccscscszzcccsssssssssssssssscsssssssssssssssscccsssscc" /><rect
       style="fill:#7babcd;fill-opacity:1;stroke:none;stroke-width:0.693751;stroke-linecap:square;stroke-linejoin:round;stroke-miterlimit:4;stroke-dasharray:none;stroke-opacity:1;paint-order:stroke fill markers"
       id="rect815-9"
       width="89.975822"
       height="61.261795"
       x="-109.71737"
       y="258.53183"
       rx="0.33501631"
       ry="0.29327357"
       transform="matrix(0.97147843,0.23712793,-0.66678628,0.74524899,0,0)" /><rect
       style="fill:#afcf8f;fill-opacity:1;stroke:none;stroke-width:0.693751;stroke-linecap:square;stroke-linejoin:round;stroke-miterlimit:4;stroke-dasharray:none;stroke-opacity:1;paint-order:stroke fill markers"
       id="rect815-6-1"
       width="89.975822"
       height="61.261795"
       x="-126.5919"
       y="233.94638"
       rx="0.33501631"
       ry="0.29327357"
       transform="matrix(0.97147843,0.23712793,-0.66678628,0.74524899,0,0)" /><rect
       style="fill:#f4f2e5;fill-opacity:1;stroke:none;stroke-width:0.693751;stroke-linecap:square;stroke-linejoin:round;stroke-miterlimit:4;stroke-dasharray:none;stroke-opacity:1;paint-order:stroke fill markers"
       id="rect815-6-3-2"
       width="89.975822"
       height="61.261795"
       x="-148.12538"
       y="202.57303"
       rx="0.33501631"
       ry="30.630896"
       transform="matrix(0.97147843,0.23712793,-0.66678628,0.74524899,0,0)" /><rect
       style="fill:#e1e0da;fill-opacity:1;stroke:none;stroke-width:0.693751;stroke-linecap:square;stroke-linejoin:round;stroke-miterlimit:4;stroke-dasharray:none;stroke-opacity:1;paint-order:stroke fill markers"
       id="rect815-6-6"
       width="89.975822"
       height="61.261795"
       x="-167.64673"
       y="174.13129"
       rx="0.33501631"
       ry="0.29327357"
       transform="matrix(0.97147843,0.23712793,-0.66678628,0.74524899,0,0)" /><rect
       style="fill:#454545;fill-opacity:1;stroke:none;stroke-width:0.693751;stroke-linecap:square;stroke-linejoin:round;stroke-miterlimit:4;stroke-dasharray:none;stroke-opacity:1;paint-order:stroke fill markers"
       id="rect815-6-3-7"
       width="89.975822"
       height="61.261795"
       x="-189.18021"
       y="142.75793"
       rx="0.33501631"
       ry="30.630896"
       transform="matrix(0.97147843,0.23712793,-0.66678628,0.74524899,0,0)" /><rect
       style="fill:#339933;fill-opacity:1;stroke:none;stroke-width:0.693751;stroke-linecap:square;stroke-linejoin:round;stroke-miterlimit:4;stroke-dasharray:none;stroke-opacity:1;paint-order:stroke fill markers"
       id="rect815-6-3-7-5"
       width="89.975822"
       height="61.261795"
       x="-212.11037"
       y="112.54971"
       rx="0.33501631"
       ry="30.630896"
       transform="matrix(0.97147843,0.23712793,-0.66678628,0.74524899,0,0)" /><rect
       style="fill:#0092da;fill-opacity:1;stroke:none;stroke-width:0.693751;stroke-linecap:square;stroke-linejoin:round;stroke-miterlimit:4;stroke-dasharray:none;stroke-opacity:1;paint-order:stroke fill markers"
       id="rect815-6-3-7-5-3"
       width="89.975822"
       height="61.261795"
       x="-234.16812"
       y="81.496132"
       rx="0.33501631"
       ry="30.630896"
       transform="matrix(0.97147843,0.23712793,-0.66678628,0.74524899,0,0)" /></g></svg>
